<mxfile host="app.diagrams.net" modified="2023-11-29T06:04:22.530Z" agent="Mozilla/5.0 (Windows NT 10.0; Win64; x64) AppleWebKit/537.36 (KHTML, like Gecko) Chrome/119.0.0.0 Safari/537.36 Edg/119.0.0.0" etag="d1eacJP0os7c3U7In-9r" version="22.1.4" type="github">
  <diagram name="Page-1" id="fgMiUjmtY-BKv5y3bGru">
    <mxGraphModel dx="776" dy="543" grid="1" gridSize="10" guides="1" tooltips="1" connect="1" arrows="1" fold="1" page="1" pageScale="1" pageWidth="827" pageHeight="1169" math="0" shadow="0">
      <root>
        <mxCell id="0" />
        <mxCell id="1" parent="0" />
      </root>
    </mxGraphModel>
  </diagram>
</mxfile>
